<?xml version="1.0" encoding="UTF-8" standalone="no"?><svg xmlns:svg="http://www.w3.org/2000/svg" xmlns="http://www.w3.org/2000/svg" version="1.1" style="overflow:visible" viewBox="-250 -250 500 500" height="500px" width="500px"><rect fill-opacity="0" fill="rgb(0,0,0)" height="500" width="500" y="-250" x="-250" /><svg version="1.1" y="-250" x="-250" viewBox="-250 -250 500 500" height="500px" width="500px" style="overflow:visible"><g transform="rotate(0,0,0)" stroke-linejoin="round" fill="#fff"><path stroke-linecap="butt" stroke-linejoin="round" stroke="none" fill="rgb(154,199,255)" d="m0-158.46c-52.7032 90.70182-100.005 160.306799-100.005 216.029999c0 55.71978 44.773989 100.889999 100.005 100.889999s100.005-45.17022 100.005-100.89s-47.3018-125.3316-100.005-216.03z" /><path stroke-linecap="butt" stroke-linejoin="round" stroke="none" fill="rgb(255,255,255)" d="m8.757499-75.9582a17.84835 17.8809 0 0 1-17.84835 17.879759a17.84835 17.8809 0 0 1-17.84835-17.87976a17.84835 17.8809 0 0 1 17.84835-17.8809a17.84835 17.8809 0 0 1 17.84835 17.8809z" /><path stroke-linecap="butt" stroke-linejoin="round" stroke="none" fill="rgb(255,255,255)" d="m-26.2612-49.4076a15.821129 15.961139 0 0 0-16.83248 8.37786c-12.85262 24.20676-28.26695 69.17748-33.97119 95.93442a15.821129 15.961139 0 1 0 30.931489 6.711863c4.619891-21.66912 21.229309-69.30516 30.930359-87.57594a15.821129 15.961139 0 0 0-11.059536-23.44866z" /><path stroke-linecap="butt" stroke-linejoin="round" stroke="none" fill="rgb(255,255,255)" d="m65.054099 7.900199c-3.073826 53.84334-23.83509 99.539099-99.89652 119.768399c10.457585 5.260644 22.277949 8.229431 34.84242 8.229431c43.125319 0 77.603879-34.78368 77.603879-78.29064c0-13.70964-4.59119-30.38784-12.54865-49.70628z" /><path stroke-linecap="butt" stroke-linejoin="round" stroke-width="15" stroke-opacity="1" stroke="rgb(28,130,255)" fill="none" d="m0-158.46c-52.7032 90.70182-100.005 160.306799-100.005 216.029999c0 55.71978 44.773989 100.889999 100.005 100.889999s100.005-45.17022 100.005-100.89s-47.3018-125.3316-100.005-216.03z" /></g></svg></svg>